<svg id="Calque_1" data-name="Calque 1" xmlns="http://www.w3.org/2000/svg" viewBox="0 0 183 172"><defs><style>.cls-1{fill:#1d1d1b;}.cls-2{fill:none;stroke:#1d1d1b;stroke-miterlimit:10;stroke-width:6px;}</style></defs><path class="cls-1" d="M92.59,7a10.5,10.5,0,1,1-10.5,10.5A10.51,10.51,0,0,1,92.59,7m0-6a16.5,16.5,0,1,0,16.5,16.5A16.5,16.5,0,0,0,92.59,1Z" transform="translate(-1.09 -0.96)"/><path class="cls-1" d="M167.59,111a10.5,10.5,0,1,1-10.5,10.5,10.51,10.51,0,0,1,10.5-10.5m0-6a16.5,16.5,0,1,0,16.5,16.5,16.5,16.5,0,0,0-16.5-16.5Z" transform="translate(-1.09 -0.96)"/><path class="cls-1" d="M17.59,111a10.5,10.5,0,1,1-10.5,10.5A10.51,10.51,0,0,1,17.59,111m0-6a16.5,16.5,0,1,0,16.5,16.5A16.5,16.5,0,0,0,17.59,105Z" transform="translate(-1.09 -0.96)"/><path class="cls-1" d="M92.59,146a10.5,10.5,0,1,1-10.5,10.5A10.51,10.51,0,0,1,92.59,146m0-6a16.5,16.5,0,1,0,16.5,16.5A16.5,16.5,0,0,0,92.59,140Z" transform="translate(-1.09 -0.96)"/><line class="cls-2" x1="98.8" y1="26.6" x2="159.46" y2="108.36"/><line class="cls-2" x1="83.53" y1="28.67" x2="22.87" y2="110.43"/><line class="cls-2" x1="91.5" y1="31.12" x2="91.5" y2="141.88"/><line class="cls-2" x1="28.64" y1="123.65" x2="78.23" y2="148.71"/><line class="cls-2" x1="155.73" y1="123.65" x2="106.15" y2="148.71"/></svg>